<svg id="eN5jHADQqiZ1" xmlns="http://www.w3.org/2000/svg" xmlns:xlink="http://www.w3.org/1999/xlink" viewBox="0 0 512 512" shape-rendering="geometricPrecision" text-rendering="geometricPrecision"><defs><linearGradient id="eN5jHADQqiZ4-fill" x1="496.664000" y1="62.747000" x2="-81.337000" y2="450.748000" spreadMethod="pad" gradientUnits="userSpaceOnUse"><stop id="eN5jHADQqiZ4-fill-0" offset="0%" stop-color="rgb(217,250,255)"/><stop id="eN5jHADQqiZ4-fill-1" offset="100%" stop-color="rgba(183,229,255,0)"/></linearGradient></defs><g id="eN5jHADQqiZ2"><g id="eN5jHADQqiZ3"><path id="eN5jHADQqiZ4" d="M428.410000,171.888000C420.055000,163.533000,410.384000,156.965000,399.693000,152.123000C371.672000,139.433000,349.642000,116.715000,337.259000,88.558000C314.342000,36.445000,262.284000,0.046000,201.713000,-0C122.402000,-0.060000,56.551000,63.163000,53.566000,142.418000C52.289000,176.340000,62.423000,207.839000,80.436000,233.387000C103.313000,265.835000,109.257000,307.169000,97.457000,345.077000C80.693000,398.934000,86.538000,449.975000,118.430000,481.868000C174.318000,537.756000,289.016000,513.671000,374.615000,428.073000C460.213000,342.474000,484.298000,227.777000,428.410000,171.888000Z" fill="url(#eN5jHADQqiZ4-fill)" stroke="none" stroke-width="1"/><g id="eN5jHADQqiZ5"><g id="eN5jHADQqiZ6"><path id="eN5jHADQqiZ7" d="M461.784000,266.500000C461.784000,231.535000,439.543000,201.773000,408.440000,190.567000C380,131.123000,319.263000,89.963000,249.088000,89.963000C242.526000,89.963000,236.050000,90.335000,229.671000,91.036000C214.963000,75.507000,194.165000,65.804000,171.088000,65.804000C126.521000,65.804000,90.392000,101.933000,90.392000,146.500000C90.392000,157.529000,92.611000,168.037000,96.616000,177.612000C81.328000,203.735000,72.551000,234.110000,72.551000,266.500000C72.551000,298.890000,81.328000,329.265000,96.616000,355.388000C92.611000,364.964000,90.392000,375.472000,90.392000,386.500000C90.392000,431.067000,126.521000,467.196000,171.088000,467.196000C194.165000,467.196000,214.963000,457.493000,229.671000,441.964000C236.050000,442.665000,242.526000,443.037000,249.088000,443.037000C319.262000,443.037000,380,401.877000,408.440000,342.433000C439.543000,331.227000,461.784000,301.465000,461.784000,266.500000ZM249.088000,99.963000C312.188000,99.963000,367.202000,135.238000,395.450000,187.104000C390.786000,186.266000,385.992000,185.804000,381.088000,185.804000C375.833000,185.804000,370.700000,186.323000,365.725000,187.283000C340.317000,149.992000,297.516000,125.456000,249.088000,125.456000C249.057000,125.456000,249.026000,125.457000,248.995000,125.457000C246.544000,116.362000,242.544000,107.909000,237.294000,100.386000C241.191000,100.112000,245.123000,99.963000,249.088000,99.963000ZM171.088000,305.804000C164.724000,305.804000,158.542000,306.564000,152.603000,307.956000C147.114000,295.231000,144.067000,281.216000,144.067000,266.500000C144.067000,251.784000,147.115000,237.769000,152.603000,225.044000C158.542000,226.437000,164.725000,227.196000,171.088000,227.196000C210.529000,227.196000,243.340000,198.893000,250.371000,161.494000C283.614000,161.895000,313.188000,177.815000,332.169000,202.335000C312.860000,217.079000,300.392000,240.328000,300.392000,266.499000C300.392000,292.670000,312.860000,315.919000,332.169000,330.663000C313.188000,355.184000,283.615000,371.104000,250.371000,371.504000C243.340000,334.106000,210.529000,305.804000,171.088000,305.804000ZM340.494000,196.768000C319.935000,169.883000,287.809000,152.295000,251.614000,151.511000C251.716000,149.852000,251.784000,148.185000,251.784000,146.500000C251.784000,142.759000,251.508000,139.085000,251.015000,135.479000C293.951000,136.102000,331.950000,157.472000,355.417000,189.997000C350.183000,191.754000,345.189000,194.029000,340.494000,196.768000ZM142.965000,222.151000C137.237000,235.806000,134.067000,250.789000,134.067000,266.500000C134.067000,282.211000,137.237000,297.194000,142.965000,310.849000C137.903000,312.732000,133.085000,315.113000,128.562000,317.924000C121.796000,302.127000,118.044000,284.744000,118.044000,266.500000C118.044000,248.256000,121.796000,230.873000,128.562000,215.076000C133.085000,217.887000,137.902000,220.268000,142.965000,222.151000ZM251.614000,381.489000C287.810000,380.705000,319.935000,363.117000,340.494000,336.232000C345.188000,338.971000,350.182000,341.245000,355.418000,343.002000C331.951000,375.527000,293.951000,396.897000,251.016000,397.520000C251.509000,393.915000,251.785000,390.240000,251.785000,386.499000C251.784000,384.816000,251.716000,383.148000,251.614000,381.489000ZM82.551000,266.500000C82.551000,238.268000,89.621000,211.660000,102.071000,188.338000C106.896000,196.281000,113.062000,203.315000,120.242000,209.150000C112.408000,226.681000,108.044000,246.090000,108.044000,266.501000C108.044000,286.912000,112.408000,306.320000,120.242000,323.852000C113.062000,329.686000,106.897000,336.721000,102.071000,344.664000C89.622000,321.340000,82.551000,294.732000,82.551000,266.500000ZM249.088000,433.037000C245.122000,433.037000,241.191000,432.888000,237.294000,432.614000C242.544000,425.091000,246.544000,416.638000,248.995000,407.543000C249.026000,407.543000,249.057000,407.544000,249.088000,407.544000C297.516000,407.544000,340.317000,383.008000,365.725000,345.717000C370.700000,346.676000,375.832000,347.196000,381.088000,347.196000C385.993000,347.196000,390.787000,346.734000,395.450000,345.896000C367.203000,397.762000,312.188000,433.037000,249.088000,433.037000Z" opacity="0.1" fill="rgb(0,118,204)" stroke="none" stroke-width="1"/><g id="eN5jHADQqiZ8"><path id="eN5jHADQqiZ9" d="M249.088000,386.544000C171.316000,386.544000,108.044000,323.272000,108.044000,245.500000C108.044000,167.727000,171.316000,104.455000,249.088000,104.455000C326.860000,104.455000,390.132000,167.728000,390.132000,245.500000C390.132000,323.272000,326.860000,386.544000,249.088000,386.544000ZM249.088000,114.455000C176.830000,114.455000,118.044000,173.241000,118.044000,245.500000C118.044000,317.758000,176.830000,376.544000,249.088000,376.544000C321.346000,376.544000,380.132000,317.758000,380.132000,245.500000C380.132000,173.241000,321.346000,114.455000,249.088000,114.455000Z" fill="rgb(101,204,254)" stroke="none" stroke-width="1"/><path id="eN5jHADQqiZ10" d="M249.088000,360.522000C185.665000,360.522000,134.067000,308.923000,134.067000,245.501000C134.067000,182.079000,185.665000,130.480000,249.088000,130.480000C312.511000,130.480000,364.109000,182.079000,364.109000,245.501000C364.109000,308.923000,312.511000,360.522000,249.088000,360.522000ZM249.088000,140.479000C191.179000,140.479000,144.067000,187.591000,144.067000,245.500000C144.067000,303.409000,191.179000,350.521000,249.088000,350.521000C306.997000,350.521000,354.109000,303.409000,354.109000,245.500000C354.109000,187.591000,306.997000,140.479000,249.088000,140.479000Z" fill="rgb(0,118,204)" stroke="none" stroke-width="1"/><g id="eN5jHADQqiZ11"><ellipse id="eN5jHADQqiZ12" rx="80.696000" ry="80.696000" transform="matrix(0.70700000000000 -0.70700000000000 0.70700000000000 0.70700000000000 381.02071599999999 245.51428399999998)" fill="rgb(101,204,254)" stroke="none" stroke-width="1"/><circle id="eN5jHADQqiZ13" r="59.539000" transform="matrix(1 0 0 1 381.08800000000002 245.50000000000000)" fill="rgb(255,255,255)" stroke="none" stroke-width="1"/><g id="eN5jHADQqiZ14"><g id="eN5jHADQqiZ15"><path id="eN5jHADQqiZ16" d="M387.982000,271.852000L368.970000,271.852000C366.209000,271.852000,363.970000,269.614000,363.970000,266.852000C363.970000,264.090000,366.209000,261.852000,368.970000,261.852000L387.982000,261.852000C391.111000,261.852000,393.658000,259.306000,393.658000,256.176000C393.658000,253.046000,391.112000,250.500000,387.982000,250.500000L374.194000,250.500000C365.551000,250.500000,358.518000,243.468000,358.518000,234.824000C358.518000,226.180000,365.550000,219.148000,374.194000,219.148000L393.207000,219.148000C395.968000,219.148000,398.207000,221.386000,398.207000,224.148000C398.207000,226.910000,395.968000,229.148000,393.207000,229.148000L374.194000,229.148000C371.065000,229.148000,368.518000,231.694000,368.518000,234.824000C368.518000,237.954000,371.064000,240.500000,374.194000,240.500000L387.982000,240.500000C396.626000,240.500000,403.658000,247.532000,403.658000,256.176000C403.658000,264.819000,396.626000,271.852000,387.982000,271.852000Z" fill="rgb(0,118,204)" stroke="none" stroke-width="1"/><path id="eN5jHADQqiZ17" d="M381.088000,279.802000C378.327000,279.802000,376.088000,277.564000,376.088000,274.802000L376.088000,216.198000C376.088000,213.436000,378.327000,211.198000,381.088000,211.198000C383.849000,211.198000,386.088000,213.436000,386.088000,216.198000L386.088000,274.802000C386.088000,277.564000,383.849000,279.802000,381.088000,279.802000Z" fill="rgb(0,118,204)" stroke="none" stroke-width="1"/></g></g></g><g id="eN5jHADQqiZ18"><ellipse id="eN5jHADQqiZ19" rx="80.696000" ry="80.696000" transform="matrix(0.70700000000000 -0.70700000000000 0.70700000000000 0.70700000000000 171.03071599999998 365.47928400000001)" fill="rgb(101,204,254)" stroke="none" stroke-width="1"/><circle id="eN5jHADQqiZ20" r="59.539000" transform="matrix(1 0 0 1 171.08799999999999 365.50000000000000)" fill="rgb(255,255,255)" stroke="none" stroke-width="1"/><g id="eN5jHADQqiZ21"><g id="eN5jHADQqiZ22"><g id="eN5jHADQqiZ23"><path id="eN5jHADQqiZ24" d="M188.388000,395.872000L160.266000,395.872000C157.071000,395.872000,154.216000,393.965000,152.993000,391.012000C151.770000,388.060000,152.440000,384.692000,154.699000,382.433000C155.439000,381.693000,155.863000,380.669000,155.863000,379.622000L155.863000,352.719000C155.863000,343.190000,163.615000,335.438000,173.144000,335.438000C182.673000,335.438000,190.425000,343.190000,190.425000,352.719000C190.425000,355.481000,188.186000,357.719000,185.425000,357.719000C182.664000,357.719000,180.425000,355.481000,180.425000,352.719000C180.425000,348.704000,177.159000,345.438000,173.144000,345.438000C169.129000,345.438000,165.863000,348.705000,165.863000,352.719000L165.863000,379.622000C165.863000,381.828000,165.356000,383.956000,164.396000,385.872000L188.388000,385.872000C191.149000,385.872000,193.388000,388.110000,193.388000,390.872000C193.388000,393.634000,191.149000,395.872000,188.388000,395.872000Z" fill="rgb(0,118,204)" stroke="none" stroke-width="1"/><path id="eN5jHADQqiZ25" d="M174.420000,371.196000L153.788000,371.196000C151.027000,371.196000,148.788000,368.958000,148.788000,366.196000C148.788000,363.434000,151.027000,361.196000,153.788000,361.196000L174.420000,361.196000C177.181000,361.196000,179.420000,363.434000,179.420000,366.196000C179.420000,368.958000,177.181000,371.196000,174.420000,371.196000Z" fill="rgb(0,118,204)" stroke="none" stroke-width="1"/></g></g></g></g><g id="eN5jHADQqiZ26"><ellipse id="eN5jHADQqiZ27" rx="80.696000" ry="80.696000" transform="matrix(0.70700000000000 -0.70700000000000 0.70700000000000 0.70700000000000 171.05671599999997 125.50528399999999)" fill="rgb(101,204,254)" stroke="none" stroke-width="1"/><path id="eN5jHADQqiZ28" d="M466.784000,245.500000C466.784000,229.170000,462.152000,213.270000,453.387000,199.517000C451.903000,197.190000,448.811000,196.504000,446.483000,197.988000C444.154000,199.472000,443.469000,202.563000,444.954000,204.892000C452.693000,217.036000,456.784000,231.078000,456.784000,245.500000C456.784000,287.239000,422.827000,321.196000,381.088000,321.196000C339.349000,321.196000,305.392000,287.239000,305.392000,245.500000C305.392000,203.761000,339.349000,169.804000,381.088000,169.804000C395.874000,169.804000,410.210000,174.083000,422.549000,182.180000C424.859000,183.696000,427.958000,183.051000,429.472000,180.742000C430.987000,178.433000,430.344000,175.334000,428.035000,173.818000C420.953000,169.172000,413.289000,165.640000,405.274000,163.282000C375.655000,107.242000,316.761000,68.962000,249.087000,68.962000C244.634000,68.962000,240.224000,69.148000,235.853000,69.477000C220.128000,51.322000,196.934000,39.802000,171.087000,39.802000C123.834000,39.802000,85.391000,78.245000,85.391000,125.498000C85.391000,138.556000,88.339000,150.935000,93.585000,162.022000C80.178000,186.892000,72.551000,215.317000,72.551000,245.498000C72.551000,275.676000,80.184000,304.096000,93.589000,328.966000C88.341000,340.055000,85.392000,352.437000,85.392000,365.498000C85.392000,412.751000,123.835000,451.194000,171.088000,451.194000C196.934000,451.194000,220.127000,439.676000,235.852000,421.522000C240.223000,421.852000,244.634000,422.035000,249.088000,422.035000C316.767000,422.035000,375.659000,383.744000,405.274000,327.696000C440.783000,317.231000,466.784000,284.354000,466.784000,245.500000ZM171.088000,441.196000C129.349000,441.196000,95.392000,407.239000,95.392000,365.500000C95.392000,323.761000,129.349000,289.804000,171.088000,289.804000C212.827000,289.804000,246.784000,323.761000,246.784000,365.500000C246.784000,407.239000,212.827000,441.196000,171.088000,441.196000ZM249.088000,412.037000C247.072000,412.037000,245.067000,411.989000,243.070000,411.914000C251.732000,398.527000,256.785000,382.597000,256.785000,365.500000C256.785000,318.247000,218.342000,279.804000,171.089000,279.804000C141.165000,279.804000,114.789000,295.232000,99.457000,318.541000C88.640000,296.474000,82.551000,271.687000,82.551000,245.500000C82.551000,219.314000,88.647000,194.535000,99.463000,172.471000C114.796000,195.773000,141.168000,211.197000,171.087000,211.197000C188.037000,211.197000,204.436000,206.245000,218.509000,196.877000C220.808000,195.347000,221.431000,192.243000,219.901000,189.944000C218.370000,187.644000,215.265000,187.022000,212.968000,188.552000C200.541000,196.824000,186.059000,201.197000,171.087000,201.197000C129.348000,201.197000,95.391000,167.240000,95.391000,125.501000C95.391000,83.762000,129.348000,49.805000,171.087000,49.805000C212.826000,49.805000,246.783000,83.762000,246.783000,125.501000C246.783000,139.751000,242.785000,153.647000,235.222000,165.689000C233.754000,168.027000,234.459000,171.114000,236.797000,172.583000C239.134000,174.050000,242.221000,173.345000,243.691000,171.008000C252.255000,157.371000,256.783000,141.635000,256.783000,125.501000C256.783000,108.399000,251.727000,92.465000,243.061000,79.075000C245.061000,79.003000,247.069000,78.964000,249.087000,78.964000C309.903000,78.964000,363.201000,111.738000,392.270000,160.546000C388.580000,160.063000,384.848000,159.805000,381.087000,159.805000C333.834000,159.805000,295.391000,198.248000,295.391000,245.501000C295.391000,292.754000,333.834000,331.197000,381.087000,331.197000C384.881000,331.197000,388.610000,330.923000,392.274000,330.443000C363.209000,379.257000,309.909000,412.037000,249.088000,412.037000Z" fill="rgb(0,118,204)" stroke="none" stroke-width="1"/><circle id="eN5jHADQqiZ29" r="59.539000" transform="matrix(1 0 0 1 171.08799999999999 125.50000000000000)" fill="rgb(255,255,255)" stroke="none" stroke-width="1"/><g id="eN5jHADQqiZ30"><path id="eN5jHADQqiZ31" d="M172.362000,157.565000C154.637000,157.565000,140.217000,143.150000,140.217000,125.431000C140.217000,107.705000,154.637000,93.285000,172.362000,93.285000C181.729000,93.285000,190.611000,97.376000,196.733000,104.509000C198.531000,106.604000,198.291000,109.761000,196.195000,111.559000C194.099000,113.358000,190.943000,113.116000,189.144000,111.021000C184.925000,106.105000,178.808000,103.286000,172.362000,103.286000C160.151000,103.286000,150.217000,113.221000,150.217000,125.432000C150.217000,137.637000,160.151000,147.566000,172.362000,147.566000C178.808000,147.566000,184.925000,144.747000,189.144000,139.831000C190.942000,137.735000,194.099000,137.494000,196.195000,139.293000C198.291000,141.091000,198.531000,144.248000,196.733000,146.343000C190.612000,153.474000,181.729000,157.565000,172.362000,157.565000Z" fill="rgb(0,118,204)" stroke="none" stroke-width="1"/><g id="eN5jHADQqiZ32"><path id="eN5jHADQqiZ33" d="M180.411000,122.644000L140.888000,122.644000C138.127000,122.644000,135.888000,120.406000,135.888000,117.644000C135.888000,114.882000,138.127000,112.644000,140.888000,112.644000L180.411000,112.644000C183.172000,112.644000,185.411000,114.882000,185.411000,117.644000C185.411000,120.405000,183.172000,122.644000,180.411000,122.644000Z" fill="rgb(0,102,233)" stroke="none" stroke-width="1"/><path id="eN5jHADQqiZ34" d="M180.411000,138.207000L140.888000,138.207000C138.127000,138.207000,135.888000,135.969000,135.888000,133.207000C135.888000,130.445000,138.127000,128.207000,140.888000,128.207000L180.411000,128.207000C183.172000,128.207000,185.411000,130.445000,185.411000,133.207000C185.411000,135.969000,183.172000,138.207000,180.411000,138.207000Z" fill="rgb(0,102,233)" stroke="none" stroke-width="1"/></g></g></g></g></g><g id="eN5jHADQqiZ35"><path id="eN5jHADQqiZ36" d="M50.216000,336.196000C48.936000,336.196000,47.657000,335.708000,46.680000,334.731000C44.727000,332.779000,44.727000,329.613000,46.680000,327.661000L56.680000,317.661000C58.633000,315.708000,61.798000,315.708000,63.751000,317.661000C65.704000,319.613000,65.704000,322.779000,63.751000,324.731000L53.751000,334.731000C52.775000,335.708000,51.496000,336.196000,50.216000,336.196000Z" fill="rgb(101,204,254)" stroke="none" stroke-width="1"/><path id="eN5jHADQqiZ37" d="M262.168000,49.350000C260.888000,49.350000,259.609000,48.862000,258.632000,47.885000C256.679000,45.933000,256.679000,42.767000,258.632000,40.815000L268.632000,30.815000C270.585000,28.862000,273.750000,28.862000,275.703000,30.815000C277.656000,32.767000,277.656000,35.933000,275.703000,37.885000L265.703000,47.885000C264.727000,48.861000,263.447000,49.350000,262.168000,49.350000Z" fill="rgb(101,204,254)" stroke="none" stroke-width="1"/><path id="eN5jHADQqiZ38" d="M413.013000,388.224000C411.733000,388.224000,410.454000,387.736000,409.477000,386.759000C407.524000,384.807000,407.524000,381.641000,409.477000,379.689000L419.477000,369.689000C421.430000,367.736000,424.595000,367.736000,426.548000,369.689000C428.501000,371.641000,428.501000,374.807000,426.548000,376.759000L416.548000,386.759000C415.572000,387.735000,414.293000,388.224000,413.013000,388.224000Z" fill="rgb(101,204,254)" stroke="none" stroke-width="1"/></g><g id="eN5jHADQqiZ39"><path id="eN5jHADQqiZ40" d="M263.081000,482.650000C261.801000,482.650000,260.522000,482.162000,259.545000,481.185000L253.081000,474.721000L246.617000,481.185000C244.664000,483.138000,241.499000,483.138000,239.546000,481.185000C237.593000,479.233000,237.593000,476.067000,239.546000,474.115000L249.546000,464.115000C251.499000,462.162000,254.664000,462.162000,256.617000,464.115000L266.617000,474.115000C268.570000,476.067000,268.570000,479.233000,266.617000,481.185000C265.640000,482.162000,264.360000,482.650000,263.081000,482.650000Z" fill="rgb(101,204,254)" stroke="none" stroke-width="1"/></g><g id="eN5jHADQqiZ41"><path id="eN5jHADQqiZ42" d="M276.905000,230.113000C275.625000,230.113000,274.346000,229.625000,273.369000,228.648000L266.905000,222.184000L260.441000,228.648000C258.488000,230.601000,255.323000,230.601000,253.370000,228.648000C251.417000,226.696000,251.417000,223.530000,253.370000,221.578000L263.370000,211.578000C265.323000,209.625000,268.488000,209.625000,270.441000,211.578000L280.441000,221.578000C282.394000,223.530000,282.394000,226.696000,280.441000,228.648000C279.464000,229.625000,278.185000,230.113000,276.905000,230.113000Z" fill="rgb(101,204,254)" stroke="none" stroke-width="1"/></g></g></g></g><script><![CDATA[!function(t,n){"object"==typeof exports&&"undefined"!=typeof module?module.exports=n():"function"==typeof define&&define.amd?define(n):(t="undefined"!=typeof globalThis?globalThis:t||self).__SVGATOR_PLAYER__=n()}(this,(function(){"use strict";function t(n){return(t="function"==typeof Symbol&&"symbol"==typeof Symbol.iterator?function(t){return typeof t}:function(t){return t&&"function"==typeof Symbol&&t.constructor===Symbol&&t!==Symbol.prototype?"symbol":typeof t})(n)}function n(t,n){if(!(t instanceof n))throw new TypeError("Cannot call a class as a function")}function r(t,n){for(var r=0;r<n.length;r++){var e=n[r];e.enumerable=e.enumerable||!1,e.configurable=!0,"value"in e&&(e.writable=!0),Object.defineProperty(t,e.key,e)}}function e(t,n,e){return n&&r(t.prototype,n),e&&r(t,e),t}function i(t){return(i=Object.setPrototypeOf?Object.getPrototypeOf:function(t){return t.__proto__||Object.getPrototypeOf(t)})(t)}function o(t,n){return(o=Object.setPrototypeOf||function(t,n){return t.__proto__=n,t})(t,n)}function u(t,n){return!n||"object"!=typeof n&&"function"!=typeof n?function(t){if(void 0===t)throw new ReferenceError("this hasn't been initialised - super() hasn't been called");return t}(t):n}function a(t){var n=function(){if("undefined"==typeof Reflect||!Reflect.construct)return!1;if(Reflect.construct.sham)return!1;if("function"==typeof Proxy)return!0;try{return Boolean.prototype.valueOf.call(Reflect.construct(Boolean,[],(function(){}))),!0}catch(t){return!1}}();return function(){var r,e=i(t);if(n){var o=i(this).constructor;r=Reflect.construct(e,arguments,o)}else r=e.apply(this,arguments);return u(this,r)}}function l(t,n,r){return(l="undefined"!=typeof Reflect&&Reflect.get?Reflect.get:function(t,n,r){var e=function(t,n){for(;!Object.prototype.hasOwnProperty.call(t,n)&&null!==(t=i(t)););return t}(t,n);if(e){var o=Object.getOwnPropertyDescriptor(e,n);return o.get?o.get.call(r):o.value}})(t,n,r||t)}var f=Math.abs;function s(t){return t}function c(t,n,r){var e=1-r;return 3*r*e*(t*e+n*r)+r*r*r}function h(){var t=arguments.length>0&&void 0!==arguments[0]?arguments[0]:0,n=arguments.length>1&&void 0!==arguments[1]?arguments[1]:0,r=arguments.length>2&&void 0!==arguments[2]?arguments[2]:1,e=arguments.length>3&&void 0!==arguments[3]?arguments[3]:1;return t<0||t>1||r<0||r>1?null:f(t-n)<=1e-5&&f(r-e)<=1e-5?s:function(i){if(i<=0)return t>0?i*n/t:0===n&&r>0?i*e/r:0;if(i>=1)return r<1?1+(i-1)*(e-1)/(r-1):1===r&&t<1?1+(i-1)*(n-1)/(t-1):1;for(var o,u=0,a=1;u<a;){var l=c(t,r,o=(u+a)/2);if(f(i-l)<1e-5)break;l<i?u=o:a=o}return c(n,e,o)}}function v(){return 1}function y(t){return 1===t?1:0}function d(){var t=arguments.length>0&&void 0!==arguments[0]?arguments[0]:1,n=arguments.length>1&&void 0!==arguments[1]?arguments[1]:0;if(1===t){if(0===n)return y;if(1===n)return v}var r=1/t;return function(t){return t>=1?1:(t+=n*r)-t%r}}function g(t){var n=arguments.length>1&&void 0!==arguments[1]?arguments[1]:2;if(Number.isInteger(t))return t;var r=Math.pow(10,n);return Math.round(t*r)/r}var p=Math.PI/180;function m(t,n,r){return t>=.5?r:n}function b(t,n,r){return 0===t||n===r?n:t*(r-n)+n}function w(t,n,r){var e=b(t,n,r);return e<=0?0:e}function x(t,n,r){return 0===t?n:1===t?r:{x:b(t,n.x,r.x),y:b(t,n.y,r.y)}}function k(t,n,r){var e=function(t,n,r){return Math.round(b(t,n,r))}(t,n,r);return e<=0?0:e>=255?255:e}function A(t,n,r){return 0===t?n:1===t?r:{r:k(t,n.r,r.r),g:k(t,n.g,r.g),b:k(t,n.b,r.b),a:b(t,null==n.a?1:n.a,null==r.a?1:r.a)}}function _(t,n,r){if(0===t)return n;if(1===t)return r;var e=n.length;if(e!==r.length)return m(t,n,r);for(var i=[],o=0;o<e;o++)i.push(A(t,n[o],r[o]));return i}function S(t,n){for(var r=[],e=0;e<t;e++)r.push(n);return r}function O(t,n){if(--n<=0)return t;var r=(t=Object.assign([],t)).length;do{for(var e=0;e<r;e++)t.push(t[e])}while(--n>0);return t}var M,j=function(){function t(r){n(this,t),this.list=r,this.length=r.length}return e(t,[{key:"setAttribute",value:function(t,n){for(var r=this.list,e=0;e<this.length;e++)r[e].setAttribute(t,n)}},{key:"removeAttribute",value:function(t){for(var n=this.list,r=0;r<this.length;r++)n[r].removeAttribute(t)}},{key:"style",value:function(t,n){for(var r=this.list,e=0;e<this.length;e++)r[e].style[t]=n}}]),t}(),F=/-./g,P=function(t,n){return n.toUpperCase()};function B(t){return"function"==typeof t?t:m}function I(t){return t?"function"==typeof t?t:Array.isArray(t)?function(t){var n=arguments.length>1&&void 0!==arguments[1]?arguments[1]:s;if(!Array.isArray(t))return n;switch(t.length){case 1:return d(t[0])||n;case 2:return d(t[0],t[1])||n;case 4:return h(t[0],t[1],t[2],t[3])||n}return n}(t,null):function(t,n){var r=arguments.length>2&&void 0!==arguments[2]?arguments[2]:s;switch(t){case"linear":return s;case"steps":return d(n.steps||1,n.jump||0)||r;case"bezier":case"cubic-bezier":return h(n.x1||0,n.y1||0,n.x2||0,n.y2||0)||r}return r}(t.type,t.value,null):null}function R(t,n,r){var e=arguments.length>3&&void 0!==arguments[3]&&arguments[3],i=n.length-1;if(t<=n[0].t)return e?[0,0,n[0].v]:n[0].v;if(t>=n[i].t)return e?[i,1,n[i].v]:n[i].v;var o,u=n[0],a=null;for(o=1;o<=i;o++){if(!(t>n[o].t)){a=n[o];break}u=n[o]}return null==a?e?[i,1,n[i].v]:n[i].v:u.t===a.t?e?[o,1,a.v]:a.v:(t=(t-u.t)/(a.t-u.t),u.e&&(t=u.e(t)),e?[o,t,r(t,u.v,a.v)]:r(t,u.v,a.v))}function q(t,n){var r=arguments.length>2&&void 0!==arguments[2]?arguments[2]:null;return t&&t.length?"function"!=typeof n?null:("function"!=typeof r&&(r=null),function(e){var i=R(e,t,n);return null!=i&&r&&(i=r(i)),i}):null}function E(t,n){return t.t-n.t}function T(n,r,e,i,o){var u,a="@"===e[0],l="#"===e[0],f=M[e],s=m;switch(a?(u=e.substr(1),e=u.replace(F,P)):l&&(e=e.substr(1)),t(f)){case"function":if(s=f(i,o,R,I,e,a,r,n),l)return s;break;case"string":s=q(i,B(f));break;case"object":if((s=q(i,B(f.i),f.f))&&"function"==typeof f.u)return f.u(r,s,e,a,n)}return s?function(t,n,r){var e=arguments.length>3&&void 0!==arguments[3]&&arguments[3];if(e)return t instanceof j?function(e){return t.style(n,r(e))}:function(e){return t.style[n]=r(e)};if(Array.isArray(n)){var i=n.length;return function(e){var o=r(e);if(null==o)for(var u=0;u<i;u++)t[u].removeAttribute(n);else for(var a=0;a<i;a++)t[a].setAttribute(n,o)}}return function(e){var i=r(e);null==i?t.removeAttribute(n):t.setAttribute(n,i)}}(r,e,s,a):null}function N(n,r,e,i){if(!i||"object"!==t(i))return null;var o=null,u=null;return Array.isArray(i)?u=function(t){if(!t||!t.length)return null;for(var n=0;n<t.length;n++)t[n].e&&(t[n].e=I(t[n].e));return t.sort(E)}(i):(u=i.keys,o=i.data||null),u?T(n,r,e,u,o):null}function C(t,n,r){if(!r)return null;var e=[];for(var i in r)if(r.hasOwnProperty(i)){var o=N(t,n,i,r[i]);o&&e.push(o)}return e.length?e:null}function z(t,n){if(!n.duration||n.duration<0)return null;var r=function(t,n){if(!n)return null;var r=[];if(Array.isArray(n))for(var e=n.length,i=0;i<e;i++){var o=n[i];if(2===o.length){var u=null;if("string"==typeof o[0])u=t.getElementById(o[0]);else if(Array.isArray(o[0])){u=[];for(var a=0;a<o[0].length;a++)if("string"==typeof o[0][a]){var l=t.getElementById(o[0][a]);l&&u.push(l)}u=u.length?1===u.length?u[0]:new j(u):null}if(u){var f=C(t,u,o[1]);f&&(r=r.concat(f))}}}else for(var s in n)if(n.hasOwnProperty(s)){var c=t.getElementById(s);if(c){var h=C(t,c,n[s]);h&&(r=r.concat(h))}}return r.length?r:null}(t,n.elements);return r?function(t,n){var r=arguments.length>2&&void 0!==arguments[2]?arguments[2]:1/0,e=arguments.length>3&&void 0!==arguments[3]?arguments[3]:1,i=arguments.length>4&&void 0!==arguments[4]&&arguments[4],o=arguments.length>5&&void 0!==arguments[5]?arguments[5]:1,u=t.length,a=e>0?n:0;i&&r%2==0&&(a=n-a);var l=null;return function(f,s){var c=f%n,h=1+(f-c)/n;s*=e,i&&h%2==0&&(s=-s);var v=!1;if(h>r)c=a,v=!0,-1===o&&(c=e>0?0:n);else if(s<0&&(c=n-c),c===l)return!1;l=c;for(var y=0;y<u;y++)t[y](c);return v}}(r,n.duration,n.iterations||1/0,n.direction||1,!!n.alternate,n.fill||1):null}var L=function(){function t(r,e){var i=arguments.length>2&&void 0!==arguments[2]?arguments[2]:{};n(this,t),this._id=0,this._running=!1,this._rollingBack=!1,this._animations=r,this.duration=e.duration,this.alternate=e.alternate,this.fill=e.fill,this.iterations=e.iterations,this.direction=i.direction||1,this.speed=i.speed||1,this.fps=i.fps||100,this.offset=i.offset||0,this.rollbackStartOffset=0}return e(t,[{key:"_rollback",value:function(){var t=this,n=1/0,r=null;this.rollbackStartOffset=this.offset,this._rollingBack||(this._rollingBack=!0,this._running=!0);this._id=window.requestAnimationFrame((function e(i){if(t._rollingBack){null==r&&(r=i);var o=i-r,u=t.rollbackStartOffset-o,a=Math.round(u*t.speed);if(a>t.duration&&n!=1/0){var l=!!t.alternate&&a/t.duration%2>1,f=a%t.duration;a=(f+=l?t.duration:0)||t.duration}var s=t.fps?1e3/t.fps:0,c=Math.max(0,a);if(c<n-s){t.offset=c,n=c;for(var h=t._animations,v=h.length,y=0;y<v;y++)h[y](c,t.direction)}var d=!1;if(t.iterations>0&&-1===t.fill){var g=t.iterations*t.duration,p=g==a;a=p?0:a,t.offset=p?0:t.offset,d=a>g}a>0&&t.offset>=a&&!d?t._id=window.requestAnimationFrame(e):t.stop()}}))}},{key:"_start",value:function(){var t=this,n=arguments.length>0&&void 0!==arguments[0]?arguments[0]:0,r=-1/0,e=null,i={},o=function o(u){t._running=!0,null==e&&(e=u);var a=Math.round((u-e+n)*t.speed),l=t.fps?1e3/t.fps:0;if(a>r+l&&!t._rollingBack){t.offset=a,r=a;for(var f=t._animations,s=f.length,c=0,h=0;h<s;h++)i[h]?c++:(i[h]=f[h](a,t.direction),i[h]&&c++);if(c===s)return void t._stop()}t._id=window.requestAnimationFrame(o)};this._id=window.requestAnimationFrame(o)}},{key:"_stop",value:function(){this._id&&window.cancelAnimationFrame(this._id),this._running=!1,this._rollingBack=!1}},{key:"play",value:function(){!this._rollingBack&&this._running||(this._rollingBack=!1,this.rollbackStartOffset>this.duration&&(this.offset=this.rollbackStartOffset-(this.rollbackStartOffset-this.offset)%this.duration,this.rollbackStartOffset=0),this._start(this.offset))}},{key:"stop",value:function(){this._stop(),this.offset=0,this.rollbackStartOffset=0;var t=this.direction,n=this._animations;window.requestAnimationFrame((function(){for(var r=0;r<n.length;r++)n[r](0,t)}))}},{key:"reachedToEnd",value:function(){return this.iterations>0&&this.offset>=this.iterations*this.duration}},{key:"restart",value:function(){this._stop(),this.offset=0,this._start()}},{key:"pause",value:function(){this._stop()}},{key:"reverse",value:function(){this.direction=-this.direction}}],[{key:"build",value:function(n,r){return(n=function(t,n){if(M=n,!t||!t.root||!Array.isArray(t.animations))return null;for(var r=document.getElementsByTagName("svg"),e=!1,i=0;i<r.length;i++)if(r[i].id===t.root&&!r[i].svgatorAnimation){(e=r[i]).svgatorAnimation=!0;break}if(!e)return null;var o=t.animations.map((function(t){return z(e,t)})).filter((function(t){return!!t}));return o.length?{element:e,animations:o,animationSettings:t.animationSettings,options:t.options||void 0}:null}(n,r))?{el:n.element,options:n.options||{},player:new t(n.animations,n.animationSettings,n.options)}:null}}]),t}();!function(){for(var t=0,n=["ms","moz","webkit","o"],r=0;r<n.length&&!window.requestAnimationFrame;++r)window.requestAnimationFrame=window[n[r]+"RequestAnimationFrame"],window.cancelAnimationFrame=window[n[r]+"CancelAnimationFrame"]||window[n[r]+"CancelRequestAnimationFrame"];window.requestAnimationFrame||(window.requestAnimationFrame=function(n){var r=Date.now(),e=Math.max(0,16-(r-t)),i=window.setTimeout((function(){n(r+e)}),e);return t=r+e,i},window.cancelAnimationFrame=window.clearTimeout)}();var D=/\.0+$/g;function Q(t){return Number.isInteger(t)?t+"":t.toFixed(6).replace(D,"")}function U(t){var n=arguments.length>1&&void 0!==arguments[1]?arguments[1]:" ";return t&&t.length?t.map(Q).join(n):""}function V(t){return t?null==t.a||t.a>=1?"rgb("+t.r+","+t.g+","+t.b+")":"rgba("+t.r+","+t.g+","+t.b+","+t.a+")":"transparent"}var $={f:null,i:function(t,n,r){return 0===t?n:1===t?r:{x:w(t,n.x,r.x),y:w(t,n.y,r.y)}},u:function(t,n){return function(r){var e=n(r);t.setAttribute("rx",Q(e.x)),t.setAttribute("ry",Q(e.y))}}},G={f:null,i:function(t,n,r){return 0===t?n:1===t?r:{width:w(t,n.width,r.width),height:w(t,n.height,r.height)}},u:function(t,n){return function(r){var e=n(r);t.setAttribute("width",Q(e.width)),t.setAttribute("height",Q(e.height))}}},H=Math.sin,Y=Math.cos,Z=Math.acos,J=Math.asin,K=Math.tan,W=Math.atan2,X=Math.PI/180,tt=180/Math.PI,nt=Math.sqrt,rt=function(){function t(){var r=arguments.length>0&&void 0!==arguments[0]?arguments[0]:1,e=arguments.length>1&&void 0!==arguments[1]?arguments[1]:0,i=arguments.length>2&&void 0!==arguments[2]?arguments[2]:0,o=arguments.length>3&&void 0!==arguments[3]?arguments[3]:1,u=arguments.length>4&&void 0!==arguments[4]?arguments[4]:0,a=arguments.length>5&&void 0!==arguments[5]?arguments[5]:0;n(this,t),this.m=[r,e,i,o,u,a],this.i=null,this.w=null,this.s=null}return e(t,[{key:"determinant",get:function(){var t=this.m;return t[0]*t[3]-t[1]*t[2]}},{key:"isIdentity",get:function(){if(null===this.i){var t=this.m;this.i=1===t[0]&&0===t[1]&&0===t[2]&&1===t[3]&&0===t[4]&&0===t[5]}return this.i}},{key:"point",value:function(t,n){var r=this.m;return{x:r[0]*t+r[2]*n+r[4],y:r[1]*t+r[3]*n+r[5]}}},{key:"translateSelf",value:function(){var t=arguments.length>0&&void 0!==arguments[0]?arguments[0]:0,n=arguments.length>1&&void 0!==arguments[1]?arguments[1]:0;if(!t&&!n)return this;var r=this.m;return r[4]+=r[0]*t+r[2]*n,r[5]+=r[1]*t+r[3]*n,this.w=this.s=this.i=null,this}},{key:"rotateSelf",value:function(){var t=arguments.length>0&&void 0!==arguments[0]?arguments[0]:0;if(t%=360){var n=H(t*=X),r=Y(t),e=this.m,i=e[0],o=e[1];e[0]=i*r+e[2]*n,e[1]=o*r+e[3]*n,e[2]=e[2]*r-i*n,e[3]=e[3]*r-o*n,this.w=this.s=this.i=null}return this}},{key:"scaleSelf",value:function(){var t=arguments.length>0&&void 0!==arguments[0]?arguments[0]:1,n=arguments.length>1&&void 0!==arguments[1]?arguments[1]:1;if(1!==t||1!==n){var r=this.m;r[0]*=t,r[1]*=t,r[2]*=n,r[3]*=n,this.w=this.s=this.i=null}return this}},{key:"skewSelf",value:function(t,n){if(n%=360,(t%=360)||n){var r=this.m,e=r[0],i=r[1],o=r[2],u=r[3];t&&(t=K(t*X),r[2]+=e*t,r[3]+=i*t),n&&(n=K(n*X),r[0]+=o*n,r[1]+=u*n),this.w=this.s=this.i=null}return this}},{key:"resetSelf",value:function(){var t=arguments.length>0&&void 0!==arguments[0]?arguments[0]:1,n=arguments.length>1&&void 0!==arguments[1]?arguments[1]:0,r=arguments.length>2&&void 0!==arguments[2]?arguments[2]:0,e=arguments.length>3&&void 0!==arguments[3]?arguments[3]:1,i=arguments.length>4&&void 0!==arguments[4]?arguments[4]:0,o=arguments.length>5&&void 0!==arguments[5]?arguments[5]:0,u=this.m;return u[0]=t,u[1]=n,u[2]=r,u[3]=e,u[4]=i,u[5]=o,this.w=this.s=this.i=null,this}},{key:"recomposeSelf",value:function(){var t=arguments.length>0&&void 0!==arguments[0]?arguments[0]:null,n=arguments.length>1&&void 0!==arguments[1]?arguments[1]:null,r=arguments.length>2&&void 0!==arguments[2]?arguments[2]:null,e=arguments.length>3&&void 0!==arguments[3]?arguments[3]:null,i=arguments.length>4&&void 0!==arguments[4]?arguments[4]:null;return this.isIdentity||this.resetSelf(),t&&(t.x||t.y)&&this.translateSelf(t.x,t.y),n&&this.rotateSelf(n),r&&(r.x&&this.skewSelf(r.x,0),r.y&&this.skewSelf(0,r.y)),!e||1===e.x&&1===e.y||this.scaleSelf(e.x,e.y),i&&(i.x||i.y)&&this.translateSelf(i.x,i.y),this}},{key:"decompose",value:function(){var t=arguments.length>0&&void 0!==arguments[0]?arguments[0]:0,n=arguments.length>1&&void 0!==arguments[1]?arguments[1]:0,r=this.m,e=r[0]*r[0]+r[1]*r[1],i=[[r[0],r[1]],[r[2],r[3]]],o=nt(e);if(0===o)return{origin:{x:r[4],y:r[5]},translate:{x:t,y:n},scale:{x:0,y:0},skew:{x:0,y:0},rotate:0};i[0][0]/=o,i[0][1]/=o;var u=r[0]*r[3]-r[1]*r[2]<0;u&&(o=-o);var a=i[0][0]*i[1][0]+i[0][1]*i[1][1];i[1][0]-=i[0][0]*a,i[1][1]-=i[0][1]*a;var l=nt(i[1][0]*i[1][0]+i[1][1]*i[1][1]);if(0===l)return{origin:{x:r[4],y:r[5]},translate:{x:t,y:n},scale:{x:o,y:0},skew:{x:0,y:0},rotate:0};i[1][0]/=l,i[1][1]/=l,a/=l;var f=0;return i[1][1]<0?(f=Z(i[1][1])*tt,i[0][1]<0&&(f=360-f)):f=J(i[0][1])*tt,u&&(f=-f),a=W(a,nt(i[0][0]*i[0][0]+i[0][1]*i[0][1]))*tt,u&&(a=-a),{origin:{x:r[4],y:r[5]},translate:{x:t,y:n},scale:{x:o,y:l},skew:{x:a,y:0},rotate:f}}},{key:"toString",value:function(){return null===this.s&&(this.s="matrix("+this.m.map(it).join(" ")+")"),this.s}}]),t}(),et=/\.0+$/;function it(t){return Number.isInteger(t)?t:t.toFixed(14).replace(et,"")}Object.freeze({M:2,L:2,Z:0,H:1,V:1,C:6,Q:4,T:2,S:4,A:7});var ot={},ut=null;function at(n){var r=function(){if(ut)return ut;if("object"!==("undefined"==typeof document?"undefined":t(document)))return{};var n=document.createElementNS("http://www.w3.org/2000/svg","svg");return n.style.position="absolute",n.style.opacity="0.01",n.style.zIndex="-9999",n.style.left="-9999px",n.style.width="1px",n.style.height="1px",ut={svg:n}}().svg;if(!r)return function(t){return null};var e=document.createElementNS(r.namespaceURI,"path");e.setAttributeNS(null,"d",n),e.setAttributeNS(null,"fill","none"),e.setAttributeNS(null,"stroke","none"),r.appendChild(e);var i=e.getTotalLength();return function(t){var n=e.getPointAtLength(i*t);return{x:n.x,y:n.y}}}function lt(t){return ot[t]?ot[t]:ot[t]=at(t)}function ft(t,n,r,e){if(!t||!e)return!1;var i=["M",t.x,t.y];if(n&&r&&(i.push("C"),i.push(n.x),i.push(n.y),i.push(r.x),i.push(r.y)),n?!r:r){var o=n||r;i.push("Q"),i.push(o.x),i.push(o.y)}return n||r||i.push("L"),i.push(e.x),i.push(e.y),i.join(" ")}function st(t,n,r,e){var i=arguments.length>4&&void 0!==arguments[4]?arguments[4]:1,o=ft(t,n,r,e),u=lt(o);try{return u(i)}catch(t){return null}}function ct(t,n,r,e){var i=1-e;return i*i*t+2*i*e*n+e*e*r}function ht(t,n,r,e){return 2*(1-e)*(n-t)+2*e*(r-n)}function vt(t,n,r,e){var i=arguments.length>4&&void 0!==arguments[4]&&arguments[4],o=st(t,n,null,r,e);return o||(o={x:ct(t.x,n.x,r.x,e),y:ct(t.y,n.y,r.y,e)}),i&&(o.a=yt(t,n,r,e)),o}function yt(t,n,r,e){return Math.atan2(ht(t.y,n.y,r.y,e),ht(t.x,n.x,r.x,e))}function dt(t,n,r,e,i){var o=i*i;return i*o*(e-t+3*(n-r))+3*o*(t+r-2*n)+3*i*(n-t)+t}function gt(t,n,r,e,i){var o=1-i;return 3*(o*o*(n-t)+2*o*i*(r-n)+i*i*(e-r))}function pt(t,n,r,e,i){var o=arguments.length>5&&void 0!==arguments[5]&&arguments[5],u=st(t,n,r,e,i);return u||(u={x:dt(t.x,n.x,r.x,e.x,i),y:dt(t.y,n.y,r.y,e.y,i)}),o&&(u.a=mt(t,n,r,e,i)),u}function mt(t,n,r,e,i){return Math.atan2(gt(t.y,n.y,r.y,e.y,i),gt(t.x,n.x,r.x,e.x,i))}function bt(t,n,r){return t+(n-t)*r}function wt(t,n,r){var e=arguments.length>3&&void 0!==arguments[3]&&arguments[3],i={x:bt(t.x,n.x,r),y:bt(t.y,n.y,r)};return e&&(i.a=xt(t,n)),i}function xt(t,n){return Math.atan2(n.y-t.y,n.x-t.x)}function kt(t,n,r){var e=arguments.length>3&&void 0!==arguments[3]&&arguments[3];if(_t(n)){if(St(r))return vt(n,r.start,r,t,e)}else if(_t(r)){if(n.end)return vt(n,n.end,r,t,e)}else{if(n.end)return r.start?pt(n,n.end,r.start,r,t,e):vt(n,n.end,r,t,e);if(r.start)return vt(n,r.start,r,t,e)}return wt(n,r,t,e)}function At(t,n,r){var e=kt(t,n,r,!0);return e.a=function(t){var n=arguments.length>1&&void 0!==arguments[1]&&arguments[1];return n?t+Math.PI:t}(e.a)/p,e}function _t(t){return!t.type||"corner"===t.type}function St(t){return null!=t.start&&!_t(t)}var Ot=new rt;var Mt={f:Q,i:b},jt={f:Q,i:function(t,n,r){var e=b(t,n,r);return e<=0?0:e>=1?1:e}};function Ft(t,n,r,e,i,o,u,a){return n=function(t,n,r){for(var e,i,o,u=t.length-1,a={},l=0;l<=u;l++)(e=t[l]).e&&(e.e=n(e.e)),e.v&&"g"===(i=e.v).t&&i.r&&(o=r.getElementById(i.r))&&(a[i.r]=o.querySelectorAll("stop"));return a}(t,e,a),function(e){var i,o=r(e,t,Pt);return o?"c"===o.t?V(o.v):"g"===o.t?(n[o.r]&&function(t,n){for(var r=0,e=t.length;r<e;r++)t[r].setAttribute("stop-color",V(n[r]))}(n[o.r],o.v),(i=o.r)?"url(#"+i+")":"none"):"none":"none"}}function Pt(t,n,r){if(0===t)return n;if(1===t)return r;if(n&&r){var e=n.t;if(e===r.t)switch(n.t){case"c":return{t:e,v:A(t,n.v,r.v)};case"g":if(n.r===r.r)return{t:e,v:_(t,n.v,r.v),r:n.r}}}return m(t,n,r)}var Bt={fill:Ft,"fill-opacity":jt,stroke:Ft,"stroke-opacity":jt,"stroke-width":Mt,"stroke-dashoffset":{f:Q,i:b},"stroke-dasharray":{f:function(t){var n=arguments.length>1&&void 0!==arguments[1]?arguments[1]:" ";return t&&t.length>0&&(t=t.map((function(t){return Math.floor(1e4*t)/1e4}))),U(t,n)},i:function(t,n,r){var e,i,o,u=n.length,a=r.length;if(u!==a)if(0===u)n=S(u=a,0);else if(0===a)a=u,r=S(u,0);else{var l=(o=(e=u)*(i=a)/function(t,n){for(var r;n;)r=n,n=t%n,t=r;return t||1}(e,i))<0?-o:o;n=O(n,Math.floor(l/u)),r=O(r,Math.floor(l/a)),u=a=l}for(var f=[],s=0;s<u;s++)f.push(g(w(t,n[s],r[s]),6));return f}},opacity:jt,transform:function(n,r,e,i){if(!(n=function(n,r){if(!n||"object"!==t(n))return null;var e=!1;for(var i in n)n.hasOwnProperty(i)&&(n[i]&&n[i].length?(n[i].forEach((function(t){t.e&&(t.e=r(t.e))})),e=!0):delete n[i]);return e?n:null}(n,i)))return null;var o=function(t,i,o){var u=arguments.length>3&&void 0!==arguments[3]?arguments[3]:null;return n[t]?e(i,n[t],o):r&&r[t]?r[t]:u};return r&&r.a&&n.o?function(t){var r=e(t,n.o,At);return Ot.recomposeSelf(r,o("r",t,b,0)+r.a,o("k",t,x),o("s",t,x),o("t",t,x)).toString()}:function(t){return Ot.recomposeSelf(o("o",t,kt,null),o("r",t,b,0),o("k",t,x),o("s",t,x),o("t",t,x)).toString()}},r:Mt,"#size":G,"#radius":$,_:function(t,n){if(Array.isArray(t))for(var r=0;r<t.length;r++)this[t[r]]=n;else this[t]=n}};return function(t){!function(t,n){if("function"!=typeof n&&null!==n)throw new TypeError("Super expression must either be null or a function");t.prototype=Object.create(n&&n.prototype,{constructor:{value:t,writable:!0,configurable:!0}}),n&&o(t,n)}(u,t);var r=a(u);function u(){return n(this,u),r.apply(this,arguments)}return e(u,null,[{key:"build",value:function(t){var n=l(i(u),"build",this).call(this,t,Bt);n.el,n.options;var r=n.player;return function(t,n,r){t.play()}(r),r}}]),u}(L)}));
__SVGATOR_PLAYER__.build({"root":"eN5jHADQqiZ1","animations":[{"duration":3000,"direction":1,"iterations":0,"fill":1,"alternate":false,"speed":1,"elements":{"eN5jHADQqiZ6":{"transform":{"data":{"o":{"x":249.088,"y":245.49800000000002,"type":"corner"},"t":{"x":-249.088,"y":-245.49800000000002}},"keys":{"r":[{"t":300,"v":0},{"t":2700,"v":360}]}}},"eN5jHADQqiZ36":{"transform":{"data":{"t":{"x":-55.21550178527832,"y":-326.1961364746094}},"keys":{"o":[{"t":0,"v":{"x":55.21550178527832,"y":326.1961364746094,"type":"corner"}},{"t":1000,"v":{"x":30.264859145278315,"y":364.1216877496095,"type":"corner"}},{"t":1700,"v":{"x":75.38886262527839,"y":373.7313214346085,"type":"corner"}},{"t":3000,"v":{"x":55.21550178527832,"y":326.1961364746094,"type":"corner"}}]}}},"eN5jHADQqiZ37":{"transform":{"data":{"t":{"x":-267.16749572753906,"y":-39.35012435913086}},"keys":{"o":[{"t":0,"v":{"x":267.16749572753906,"y":39.35012435913086,"type":"corner"}},{"t":1000,"v":{"x":305.3135537825386,"y":11.738434459130858,"type":"corner"}},{"t":2000,"v":{"x":322.26909102753837,"y":44.61359698413081,"type":"corner"}},{"t":3000,"v":{"x":267.16749572753906,"y":39.35012435913086,"type":"corner"}}]}}},"eN5jHADQqiZ38":{"transform":{"data":{"t":{"x":-418.0124969482422,"y":-378.22412109375}},"keys":{"o":[{"t":700,"v":{"x":418.0124969482422,"y":378.22412109375,"type":"corner"}},{"t":1600,"v":{"x":437.28574286824227,"y":415.1001215887503,"type":"corner"}},{"t":2300,"v":{"x":418.0124969482422,"y":378.22412109375,"type":"corner"}}]}}},"eN5jHADQqiZ40":{"transform":{"data":{"t":{"x":-253.08147430419922,"y":-472.6501159667969}},"keys":{"o":[{"t":200,"v":{"x":253.08147430419922,"y":472.6501159667969,"type":"corner"}},{"t":1400,"v":{"x":252.35558447419902,"y":451.06523996679687,"type":"corner"}},{"t":2800,"v":{"x":253.08147430419922,"y":472.6501159667969,"type":"corner"}}]}}},"eN5jHADQqiZ42":{"transform":{"data":{"t":{"x":-266.90550994873047,"y":-220.11312866210938}},"keys":{"o":[{"t":400,"v":{"x":266.90550994873047,"y":220.11312866210938,"type":"corner"}},{"t":1400,"v":{"x":266.90550994873047,"y":248.72393975210952,"type":"corner"}},{"t":2400,"v":{"x":266.90550994873047,"y":220.11312866210938,"type":"corner"}}]}}}}}],"options":{"start":"load","hover":"freeze","click":"freeze","scroll":25,"font":"embed","exportedIds":"unique","svgFormat":"animated","title":"currency"},"animationSettings":{"duration":3000,"direction":1,"iterations":0,"fill":1,"alternate":false,"speed":1}})]]></script></svg>